<svg width="15" height="17" viewBox="0 0 15 17" fill="none" xmlns="http://www.w3.org/2000/svg">
<g id="icon-cart 1" clip-path="url(#clip0_6_229)">
<path id="Vector" d="M14.383 10.888C14.3814 10.4083 14.2359 9.94002 13.9652 9.54388C13.6946 9.14775 13.3113 8.84193 12.865 8.66601L14.359 3.073C14.3901 2.95389 14.3933 2.82921 14.3683 2.70866C14.3433 2.58812 14.2909 2.47496 14.215 2.378C14.1374 2.28718 14.0404 2.21489 13.9313 2.16644C13.8221 2.11799 13.7034 2.0946 13.584 2.098H2.637L2.373 1.091C2.32696 0.920885 2.22603 0.770731 2.08589 0.663862C1.94575 0.556993 1.77424 0.499392 1.598 0.500005H0V2.098H0.983L2.965 9.498C3.01222 9.67199 3.11682 9.82493 3.26185 9.93202C3.40688 10.0391 3.58382 10.0941 3.764 10.088H11.986C12.1931 10.0953 12.3894 10.1828 12.5333 10.3319C12.6773 10.481 12.7577 10.6802 12.7577 10.8875C12.7577 11.0948 12.6773 11.294 12.5333 11.4431C12.3894 11.5922 12.1931 11.6797 11.986 11.687H1.598C1.48971 11.6816 1.38145 11.6982 1.27979 11.7359C1.17814 11.7736 1.08521 11.8316 1.00665 11.9064C0.928086 11.9811 0.865535 12.071 0.822794 12.1706C0.780052 12.2703 0.758012 12.3776 0.758012 12.486C0.758012 12.5944 0.780052 12.7017 0.822794 12.8014C0.865535 12.901 0.928086 12.9909 1.00665 13.0657C1.08521 13.1404 1.17814 13.1984 1.27979 13.2361C1.38145 13.2738 1.48971 13.2904 1.598 13.285H2.541C2.40976 13.647 2.36768 14.0354 2.41831 14.4171C2.46894 14.7988 2.6108 15.1628 2.83188 15.478C3.05296 15.7933 3.34675 16.0507 3.68837 16.2284C4.03 16.4061 4.40942 16.4989 4.7945 16.4989C5.17958 16.4989 5.559 16.4061 5.90062 16.2284C6.24225 16.0507 6.53604 15.7933 6.75712 15.478C6.9782 15.1628 7.12006 14.7988 7.17069 14.4171C7.22132 14.0354 7.17924 13.647 7.048 13.285H8.933C8.79544 13.6636 8.7555 14.0707 8.81687 14.4688C8.87825 14.8669 9.03894 15.2431 9.28413 15.5627C9.52932 15.8823 9.85108 16.1349 10.2197 16.2973C10.5883 16.4596 10.9919 16.5265 11.3932 16.4916C11.7945 16.4568 12.1805 16.3214 12.5157 16.0979C12.8508 15.8745 13.1242 15.5702 13.3106 15.2131C13.4971 14.8561 13.5905 14.4578 13.5824 14.0551C13.5742 13.6524 13.4647 13.2582 13.264 12.909C13.6059 12.6938 13.8878 12.3957 14.0836 12.0424C14.2794 11.689 14.3817 11.292 14.383 10.888ZM11.26 8.49H4.395L3.068 3.696H12.545L11.26 8.491V8.49ZM4.795 14.882C4.68671 14.8874 4.57845 14.8708 4.47679 14.8331C4.37514 14.7954 4.28221 14.7374 4.20365 14.6627C4.12509 14.5879 4.06254 14.498 4.01979 14.3984C3.97705 14.2987 3.95501 14.1914 3.95501 14.083C3.95501 13.9746 3.97705 13.8673 4.01979 13.7676C4.06254 13.668 4.12509 13.5781 4.20365 13.5034C4.28221 13.4286 4.37514 13.3706 4.47679 13.3329C4.57845 13.2952 4.68671 13.2786 4.795 13.284C4.99999 13.2943 5.1932 13.3829 5.33466 13.5316C5.47612 13.6804 5.55501 13.8778 5.55501 14.083C5.55501 14.2883 5.47612 14.4857 5.33466 14.6344C5.1932 14.7831 4.99999 14.8717 4.795 14.882ZM11.188 14.882C11.0797 14.8874 10.9715 14.8708 10.8698 14.8331C10.7681 14.7954 10.6752 14.7374 10.5966 14.6627C10.5181 14.5879 10.4555 14.498 10.4128 14.3984C10.3701 14.2987 10.348 14.1914 10.348 14.083C10.348 13.9746 10.3701 13.8673 10.4128 13.7676C10.4555 13.668 10.5181 13.5781 10.5966 13.5034C10.6752 13.4286 10.7681 13.3706 10.8698 13.3329C10.9715 13.2952 11.0797 13.2786 11.188 13.284C11.393 13.2943 11.5862 13.3829 11.7277 13.5316C11.8691 13.6804 11.948 13.8778 11.948 14.083C11.948 14.2883 11.8691 14.4857 11.7277 14.6344C11.5862 14.7831 11.393 14.8717 11.188 14.882Z" fill="white"/>
</g>
<defs>
<clipPath id="clip0_6_229">
<rect width="15" height="16" fill="white" transform="translate(0 0.5)"/>
</clipPath>
</defs>
</svg>
